# xmcd
#
# Track frame offsets:
#	150
#	12174
#	17416
#	28904
#	37913
#	45821
#	54459
#	66226
#	73884
#	84405
#	91619
#	101095
#	111010
#	122170
#	133314
#	143175
#	149917
#	159597
#	167612
#	178665
#	185739
#	195374
#	203269
#	212606
#	220428
#
# Disc length: 3022 seconds
# Revision: 0
# Processed by: cddbd v1.5.2PL0 Copyright (c) Steve Scherf et al.
# Submitted via: dBpowerAMP V12.0
#
DISCID=630bcc19
DTITLE=Various Artist - Appalachian Bluegrass Legacy
DYEAR=2009
DGENRE=Country
TTITLE0=Red Smiley - Whiskey Before Breakfast
TTITLE1=Jim Greer and The Mac-O-Chee Valley Folks - Black Jack Davy
TTITLE2=Hylo Brown and The Timberliners - Picture on the Wall
TTITLE3=Earl Taylor - Down in the Willow Garden
TTITLE4=Curley Fox - Black Mountain Rag
TTITLE5=Jack Casey - Mountain Dew
TTITLE6=Hylo Brown and The Timberliners - Sitting' on Top of the World
TTITLE7=Jim Greer and The Mac-O-Chee Valley Folks - Curly Headed Baby
TTITLE8=Mac Wiseman - More Pretty Girls Than One
TTITLE9=DeWayne Wear - Old Joe Clark
TTITLE10=Jack Casey - Sophroni
TTITLE11=Red White and the Dixie Blue Grass Band - All the Good Times Are Past and Gone
TTITLE12=Bobby Smith - Legend of Uncle Jim
TTITLE13=Red Smiley and the Bluegrass Cut-Ups - The Dying Soldier
TTITLE14=Raymond Fairchild - Raymond's Talking Banjo
TTITLE15=Jack Casey - Six White Horses
TTITLE16=Log Cabin Boys - Cotton Eyed Joe
TTITLE17=Jim Greer and The Mac-O-Chee Valley Folks - Watermelon on the Vine
TTITLE18=Hylo Brown - Diamond in the Rough
TTITLE19=DeWayne Wear - Old Dan Tucker
TTITLE20=Jack Casey - Little White Washed Chimney
TTITLE21=Bluegrass Cut-Ups - Rolling in My Sweet Baby's Arms
TTITLE22=Red White and the Dixie Blue Grass Band - Salty Dog Rag
TTITLE23=Red Smiley and the Bluegrass Cut-Ups - Red Wing
TTITLE24=Jim Greer and The Mac-O-Chee Valley Folks - Grandfather's Clock
EXTD=
EXTT0=
EXTT1=
EXTT2=
EXTT3=
EXTT4=
EXTT5=
EXTT6=
EXTT7=
EXTT8=
EXTT9=
EXTT10=
EXTT11=
EXTT12=
EXTT13=
EXTT14=
EXTT15=
EXTT16=
EXTT17=
EXTT18=
EXTT19=
EXTT20=
EXTT21=
EXTT22=
EXTT23=
EXTT24=
PLAYORDER=
